<svg width="22" height="23" viewBox="0 0 22 23" fill="none" xmlns="http://www.w3.org/2000/svg">
<g filter="url(#filter0_d_3566_33556)">
<rect width="22" height="23" rx="11" fill="#7961DB"/>
<rect x="0.5" y="0.5" width="21" height="22" rx="10.5" stroke="#111418" stroke-opacity="0.2"/>
<path d="M5.0355 5.5H11H16.9645C17.7603 5.5 18.2578 6.33313 17.8601 6.99986L14.8774 12.0006L11.8956 16.9997C11.4977 17.6668 10.5023 17.6668 10.1044 16.9997L7.12265 12.0006L4.1399 6.99986C3.74222 6.33313 4.23971 5.5 5.0355 5.5Z" fill="white" fill-opacity="0.15"/>
<path d="M11 17.5H16.9645C17.7603 17.5 18.2578 16.6669 17.8601 16.0001L14.8774 10.9994L11.8956 6.00032C11.4977 5.33323 10.5023 5.33323 10.1044 6.00032L7.12265 10.9994L4.1399 16.0001C3.74222 16.6669 4.23971 17.5 5.0355 17.5H11Z" fill="white" fill-opacity="0.15"/>
<path fill-rule="evenodd" clip-rule="evenodd" d="M10.9995 4.5H5.06186C3.47729 4.5 2.48672 6.16624 3.27856 7.49968L5.65409 11.5L3.27856 15.5003C2.48672 16.8338 3.47729 18.5 5.06186 18.5H16.9381C18.5227 18.5 19.5133 16.8338 18.7214 15.5003L16.3459 11.5L18.7214 7.49968C19.5133 6.16624 18.5227 4.5 16.9381 4.5H11.0005C11.0002 4.5 10.9998 4.5 10.9995 4.5ZM9.21704 5.50008H5.06186C4.26957 5.50008 3.77429 6.3332 4.17021 6.99992L6.2483 10.4994L9.21671 5.50063C9.21682 5.50045 9.21693 5.50026 9.21704 5.50008ZM6.2483 12.5006L4.17021 16.0001C3.77429 16.6668 4.26957 17.4999 5.06186 17.4999H9.21704C9.21693 17.4997 9.21682 17.4995 9.21671 17.4994L6.2483 12.5006ZM12.783 17.4999H16.9381C17.7304 17.4999 18.2257 16.6668 17.8298 16.0001L15.7517 12.5006L12.7833 17.4994C12.7832 17.4995 12.7831 17.4997 12.783 17.4999ZM15.1575 11.5L11.8916 16.9996C11.4955 17.6667 10.5045 17.6667 10.1084 16.9996L6.84251 11.5L10.1084 6.0004C10.5045 5.33331 11.4955 5.33331 11.8916 6.0004L15.1575 11.5ZM15.7517 10.4994L17.8298 6.99992C18.2257 6.3332 17.7304 5.50008 16.9381 5.50008H12.783C12.7831 5.50026 12.7832 5.50045 12.7833 5.50063L15.7517 10.4994Z" fill="#F6F7F9"/>
</g>
<defs>
<filter id="filter0_d_3566_33556" x="-2" y="-1" width="26" height="27" filterUnits="userSpaceOnUse" color-interpolation-filters="sRGB">
<feFlood flood-opacity="0" result="BackgroundImageFix"/>
<feColorMatrix in="SourceAlpha" type="matrix" values="0 0 0 0 0 0 0 0 0 0 0 0 0 0 0 0 0 0 127 0" result="hardAlpha"/>
<feOffset dy="1"/>
<feGaussianBlur stdDeviation="1"/>
<feColorMatrix type="matrix" values="0 0 0 0 0.0666667 0 0 0 0 0.0784314 0 0 0 0 0.0941176 0 0 0 0.1 0"/>
<feBlend mode="normal" in2="BackgroundImageFix" result="effect1_dropShadow_3566_33556"/>
<feBlend mode="normal" in="SourceGraphic" in2="effect1_dropShadow_3566_33556" result="shape"/>
</filter>
</defs>
</svg>
