<svg width="34" height="34" viewBox="0 0 34 34" fill="none" xmlns="http://www.w3.org/2000/svg">
<rect width="34" height="34" rx="17" fill="#8F99A8" fill-opacity="0.15"/>
<rect x="0.5" y="0.5" width="33" height="33" rx="16.5" stroke="#111418" stroke-opacity="0.1"/>
<path d="M21 13C20.97 13 20.93 13 20.9 13.01C20.44 10.72 18.42 9 16 9C13.24 9 11 11.24 11 14C11 14.11 11.01 14.22 11.02 14.33C9.83 14.89 9 16.1 9 17.5C9 19.43 10.57 21 12.5 21H15V18C15 17.4477 15.4477 17 16 17H24C24.4366 17 24.8078 17.2798 24.9442 17.6699C24.9809 17.4521 25 17.2283 25 17C25 14.79 23.21 13 21 13Z" fill="#5F6B7C"/>
<path fill-rule="evenodd" clip-rule="evenodd" d="M16 18H24V21H16V18ZM19 19.5C19 19.2239 19.2239 19 19.5 19H22.5C22.7761 19 23 19.2239 23 19.5C23 19.7761 22.7761 20 22.5 20H19.5C19.2239 20 19 19.7761 19 19.5ZM18 19.5C18 19.7761 17.7761 20 17.5 20C17.2239 20 17 19.7761 17 19.5C17 19.2239 17.2239 19 17.5 19C17.7761 19 18 19.2239 18 19.5Z" fill="#5F6B7C"/>
<path fill-rule="evenodd" clip-rule="evenodd" d="M16 25V22H24V25H16ZM19 23.5C19 23.2239 19.2239 23 19.5 23H22.5C22.7761 23 23 23.2239 23 23.5C23 23.7761 22.7761 24 22.5 24H19.5C19.2239 24 19 23.7761 19 23.5ZM17.5 24C17.7761 24 18 23.7761 18 23.5C18 23.2239 17.7761 23 17.5 23C17.2239 23 17 23.2239 17 23.5C17 23.7761 17.2239 24 17.5 24Z" fill="#5F6B7C"/>
</svg>
