<svg width="34" height="34" viewBox="0 0 34 34" fill="none" xmlns="http://www.w3.org/2000/svg">
<rect width="34" height="34" rx="17" fill="#8F99A8" fill-opacity="0.15"/>
<rect x="0.5" y="0.5" width="33" height="33" rx="16.5" stroke="#111418" stroke-opacity="0.1"/>
<path fill-rule="evenodd" clip-rule="evenodd" d="M23.1937 12.5394L17 16.4105L10.8063 12.5394L16.5039 9.28361C16.8113 9.10794 17.1887 9.10794 17.4961 9.28361L23.1937 12.5394ZM23.9438 13.2499C23.9805 13.3545 24 13.4661 24 13.5804V20.4198C24 20.7786 23.8077 21.11 23.4961 21.288L17.5 24.7144V17.2772L23.9438 13.2499ZM10.0562 13.2499L16.5 17.2772V24.7144L10.5039 21.288C10.1923 21.11 10 20.7786 10 20.4198V13.5804C10 13.4661 10.0195 13.3545 10.0562 13.2499Z" fill="#5F6B7C"/>
</svg>
