<svg width="34" height="34" viewBox="0 0 34 34" fill="none" xmlns="http://www.w3.org/2000/svg">
<rect width="34" height="34" rx="17" fill="#8F99A8" fill-opacity="0.15"/>
<rect x="0.5" y="0.5" width="33" height="33" rx="16.5" stroke="#111418" stroke-opacity="0.1"/>
<path fill-rule="evenodd" clip-rule="evenodd" d="M10 12C10 10.8954 10.8954 10 12 10H16.5843C17.1147 10 17.6234 10.2107 17.9985 10.5858L23.4111 15.9985C24.1922 16.7795 24.1922 18.0458 23.4111 18.8269L18.8269 23.4111C18.0458 24.1922 16.7795 24.1922 15.9985 23.4111L10.5858 17.9985C10.2107 17.6234 10 17.1147 10 16.5843V12ZM13.487 11.9926C12.6617 11.9926 11.9926 12.6617 11.9926 13.487C11.9926 14.3124 12.6617 14.9815 13.487 14.9815C14.3124 14.9815 14.9815 14.3124 14.9815 13.487C14.9815 12.6617 14.3124 11.9926 13.487 11.9926Z" fill="#5F6B7C"/>
</svg>
