<svg width="16" height="16" viewBox="0 0 16 16" fill="none" xmlns="http://www.w3.org/2000/svg">
<path fill-rule="evenodd" clip-rule="evenodd" d="M7.99949 1H2.06186C0.477294 1 -0.513276 2.66624 0.278565 3.99968L2.65409 8L0.278565 12.0003C-0.513276 13.3338 0.477295 15 2.06186 15H13.9381C15.5227 15 16.5133 13.3338 15.7214 12.0003L13.3459 8L15.7214 3.99968C16.5133 2.66624 15.5227 1 13.9381 1H8.00051H7.99949ZM6.21704 2.00008H2.06186C1.26957 2.00008 0.774289 2.8332 1.17021 3.49992L3.2483 6.99937L6.21704 2.00008ZM3.2483 9.00063L1.17021 12.5001C0.77429 13.1668 1.26957 13.9999 2.06186 13.9999H6.21704L3.2483 9.00063ZM9.78296 13.9999H13.9381C14.7304 13.9999 15.2257 13.1668 14.8298 12.5001L12.7517 9.00063L9.78296 13.9999ZM12.1575 8L8.89164 13.4996C8.4955 14.1667 7.5045 14.1667 7.10836 13.4996L3.84251 8L7.10836 2.5004C7.5045 1.83331 8.49551 1.83331 8.89165 2.5004L12.1575 8ZM12.7517 6.99936L14.8298 3.49992C15.2257 2.8332 14.7304 2.00008 13.9381 2.00008H9.78296L12.7517 6.99936Z" fill="white"/>
</svg>
