<svg width="116" height="30" viewBox="0 0 116 30" fill="none" xmlns="http://www.w3.org/2000/svg">
<rect width="30" height="30" fill="#252A31"/>
<path d="M15 19.1182C16.1984 19.1181 17.3698 18.7627 18.3662 18.0969C19.3626 17.4311 20.1392 16.4847 20.5978 15.3775C21.0563 14.2704 21.1762 13.0521 20.9424 11.8767C20.7085 10.7014 20.1314 9.62175 19.284 8.77441C18.4365 7.92708 17.3568 7.35006 16.1815 7.11635C15.0061 6.88263 13.7878 7.00271 12.6807 7.46139C11.5735 7.92008 10.6273 8.69677 9.96158 9.69324C9.29587 10.6897 8.9406 11.8612 8.9407 13.0596C8.9409 14.6665 9.57937 16.2075 10.7157 17.3437C11.852 18.4799 13.3931 19.1182 15 19.1182V19.1182ZM14.9997 8.87558C15.8283 8.87556 16.6383 9.12125 17.3272 9.58156C18.0161 10.0419 18.5531 10.6962 18.8702 11.4616C19.1873 12.2271 19.2703 13.0695 19.1086 13.8821C18.947 14.6948 18.548 15.4412 17.9621 16.0271C17.3762 16.613 16.6298 17.012 15.8171 17.1737C15.0045 17.3353 14.1622 17.2524 13.3967 16.9353C12.6312 16.6182 11.9769 16.0813 11.5165 15.3923C11.0562 14.7034 10.8105 13.8934 10.8105 13.0649C10.8106 11.9538 11.2519 10.8883 12.0376 10.1027C12.8232 9.31702 13.8887 8.87563 14.9998 8.87558H14.9997Z" fill="white"/>
<path d="M15 20.9204L9.58399 18.5789L8.6842 20.3061L15 23L21.3158 20.3061L20.416 18.5789L15 20.9204Z" fill="white"/>
<path d="M112.759 26.478C112.358 26.478 111.97 26.4453 111.597 26.38C111.224 26.3146 110.883 26.226 110.575 26.114C110.267 26.002 109.996 25.862 109.763 25.694L110.267 24.322C110.5 24.462 110.752 24.588 111.023 24.7C111.303 24.8026 111.592 24.882 111.891 24.938C112.19 24.994 112.484 25.022 112.773 25.022C113.174 25.022 113.464 24.9613 113.641 24.84C113.828 24.7093 113.921 24.5413 113.921 24.336C113.921 24.1493 113.86 24.0093 113.739 23.916C113.618 23.8226 113.44 23.7573 113.207 23.72L111.737 23.454C111.158 23.3513 110.71 23.1413 110.393 22.824C110.085 22.4973 109.931 22.082 109.931 21.578C109.931 21.1113 110.062 20.71 110.323 20.374C110.584 20.0286 110.944 19.7673 111.401 19.59C111.868 19.4033 112.395 19.31 112.983 19.31C113.319 19.31 113.646 19.338 113.963 19.394C114.28 19.45 114.579 19.534 114.859 19.646C115.148 19.758 115.405 19.9073 115.629 20.094L115.097 21.452C114.92 21.312 114.71 21.1906 114.467 21.088C114.224 20.9853 113.977 20.906 113.725 20.85C113.473 20.7846 113.235 20.752 113.011 20.752C112.591 20.752 112.288 20.822 112.101 20.962C111.914 21.0926 111.821 21.2606 111.821 21.466C111.821 21.6246 111.872 21.76 111.975 21.872C112.087 21.9746 112.255 22.0446 112.479 22.082L113.949 22.348C114.556 22.4506 115.018 22.656 115.335 22.964C115.652 23.2626 115.811 23.6733 115.811 24.196C115.811 24.672 115.685 25.0826 115.433 25.428C115.181 25.764 114.826 26.0253 114.369 26.212C113.912 26.3893 113.375 26.478 112.759 26.478Z" fill="black"/>
<path d="M108.121 26.478C107.141 26.478 106.413 26.24 105.937 25.764C105.461 25.288 105.223 24.588 105.223 23.664V21.032H103.921V19.45H105.223V17.434H107.337V19.45H109.367V21.032H107.337V23.58C107.337 23.972 107.426 24.266 107.603 24.462C107.79 24.658 108.084 24.756 108.485 24.756C108.606 24.756 108.732 24.742 108.863 24.714C109.003 24.686 109.152 24.6486 109.311 24.602L109.619 26.142C109.423 26.2446 109.19 26.324 108.919 26.38C108.648 26.4453 108.382 26.478 108.121 26.478Z" fill="black"/>
<path d="M96.7008 26.324V19.45H98.7728V20.738H98.6188C98.8335 20.2806 99.1508 19.9306 99.5708 19.688C100 19.436 100.486 19.31 101.027 19.31C101.578 19.31 102.03 19.4173 102.385 19.632C102.74 19.8373 103.006 20.1546 103.183 20.584C103.36 21.004 103.449 21.5406 103.449 22.194V26.324H101.335V22.292C101.335 21.9746 101.293 21.718 101.209 21.522C101.134 21.3166 101.018 21.172 100.859 21.088C100.71 20.9946 100.518 20.948 100.285 20.948C99.9862 20.948 99.7248 21.0133 99.5008 21.144C99.2862 21.2653 99.1182 21.4426 98.9968 21.676C98.8755 21.9093 98.8148 22.18 98.8148 22.488V26.324H96.7008Z" fill="black"/>
<path d="M92.8672 26.478C92.0552 26.478 91.3552 26.3333 90.7672 26.044C90.1886 25.7453 89.7406 25.33 89.4232 24.798C89.1152 24.2566 88.9612 23.622 88.9612 22.894C88.9612 22.1846 89.1106 21.564 89.4092 21.032C89.7079 20.4906 90.1232 20.0706 90.6552 19.772C91.1966 19.464 91.8079 19.31 92.4892 19.31C93.1612 19.31 93.7399 19.4546 94.2252 19.744C94.7106 20.024 95.0839 20.4253 95.3452 20.948C95.6159 21.4706 95.7512 22.0913 95.7512 22.81V23.342H90.6972V22.25H94.2252L94.0012 22.446C94.0012 21.8766 93.8752 21.4473 93.6232 21.158C93.3806 20.8593 93.0306 20.71 92.5732 20.71C92.2279 20.71 91.9339 20.7893 91.6912 20.948C91.4486 21.1066 91.2619 21.3353 91.1312 21.634C91.0006 21.9326 90.9352 22.292 90.9352 22.712V22.824C90.9352 23.3 91.0052 23.692 91.1452 24C91.2946 24.2986 91.5139 24.5226 91.8032 24.672C92.1019 24.8213 92.4706 24.896 92.9092 24.896C93.2826 24.896 93.6606 24.84 94.0432 24.728C94.4259 24.616 94.7712 24.4433 95.0792 24.21L95.6392 25.624C95.2939 25.8853 94.8692 26.0953 94.3652 26.254C93.8706 26.4033 93.3712 26.478 92.8672 26.478Z" fill="black"/>
<path d="M81.2511 26.324V19.45H83.3231V20.738H83.1691C83.3837 20.2806 83.7011 19.9306 84.1211 19.688C84.5504 19.436 85.0357 19.31 85.5771 19.31C86.1277 19.31 86.5804 19.4173 86.9351 19.632C87.2897 19.8373 87.5557 20.1546 87.7331 20.584C87.9104 21.004 87.9991 21.5406 87.9991 22.194V26.324H85.8851V22.292C85.8851 21.9746 85.8431 21.718 85.7591 21.522C85.6844 21.3166 85.5677 21.172 85.4091 21.088C85.2597 20.9946 85.0684 20.948 84.8351 20.948C84.5364 20.948 84.2751 21.0133 84.0511 21.144C83.8364 21.2653 83.6684 21.4426 83.5471 21.676C83.4257 21.9093 83.3651 22.18 83.3651 22.488V26.324H81.2511Z" fill="black"/>
<path d="M76.5909 26.478C75.8536 26.478 75.2096 26.3333 74.6589 26.044C74.1176 25.7546 73.6976 25.3393 73.3989 24.798C73.1003 24.2566 72.9509 23.6173 72.9509 22.88C72.9509 22.1426 73.1003 21.508 73.3989 20.976C73.6976 20.444 74.1176 20.0333 74.6589 19.744C75.2096 19.4546 75.8536 19.31 76.5909 19.31C77.3283 19.31 77.9676 19.4546 78.5089 19.744C79.0596 20.0333 79.4843 20.4486 79.7829 20.99C80.0909 21.522 80.2449 22.152 80.2449 22.88C80.2449 23.6173 80.0909 24.2566 79.7829 24.798C79.4843 25.3393 79.0596 25.7546 78.5089 26.044C77.9676 26.3333 77.3283 26.478 76.5909 26.478ZM76.5909 24.896C77.0483 24.896 77.4169 24.7326 77.6969 24.406C77.9769 24.07 78.1169 23.5613 78.1169 22.88C78.1169 22.1986 77.9769 21.6993 77.6969 21.382C77.4169 21.0553 77.0483 20.892 76.5909 20.892C76.1429 20.892 75.7789 21.0553 75.4989 21.382C75.2189 21.6993 75.0789 22.1986 75.0789 22.88C75.0789 23.5613 75.2189 24.07 75.4989 24.406C75.7789 24.7326 76.1429 24.896 76.5909 24.896Z" fill="black"/>
<path d="M65.022 28.844V19.45H67.094V20.808H66.954C67.094 20.36 67.374 20.0006 67.794 19.73C68.2233 19.45 68.7133 19.31 69.264 19.31C69.8613 19.31 70.384 19.4546 70.832 19.744C71.2893 20.0333 71.644 20.444 71.896 20.976C72.148 21.508 72.274 22.1426 72.274 22.88C72.274 23.6173 72.148 24.2566 71.896 24.798C71.644 25.3393 71.294 25.7546 70.846 26.044C70.398 26.3333 69.8707 26.478 69.264 26.478C68.7227 26.478 68.242 26.3473 67.822 26.086C67.402 25.8153 67.1173 25.4653 66.968 25.036H67.136V28.844H65.022ZM68.634 24.896C69.082 24.896 69.446 24.7326 69.726 24.406C70.006 24.07 70.146 23.5613 70.146 22.88C70.146 22.1986 70.006 21.6993 69.726 21.382C69.446 21.0553 69.082 20.892 68.634 20.892C68.1767 20.892 67.808 21.0553 67.528 21.382C67.248 21.6993 67.108 22.1986 67.108 22.88C67.108 23.5613 67.248 24.07 67.528 24.406C67.808 24.7326 68.1767 24.896 68.634 24.896Z" fill="black"/>
<path d="M52.8886 26.324V19.45H54.9606V20.738H54.8066C54.9279 20.4486 55.0959 20.1966 55.3106 19.982C55.5253 19.7673 55.7819 19.604 56.0806 19.492C56.3793 19.3706 56.7059 19.31 57.0606 19.31C57.5926 19.31 58.0359 19.436 58.3906 19.688C58.7453 19.94 58.9973 20.3273 59.1466 20.85H58.9506C59.1559 20.374 59.4686 20.0006 59.8886 19.73C60.3179 19.45 60.8079 19.31 61.3586 19.31C61.8906 19.31 62.3246 19.4173 62.6606 19.632C63.0059 19.8373 63.2626 20.1546 63.4306 20.584C63.5986 21.004 63.6826 21.5406 63.6826 22.194V26.324H61.5686V22.264C61.5686 21.8066 61.4939 21.4753 61.3446 21.27C61.2046 21.0553 60.9619 20.948 60.6166 20.948C60.3553 20.948 60.1266 21.0133 59.9306 21.144C59.7346 21.2653 59.5853 21.4473 59.4826 21.69C59.3893 21.9233 59.3426 22.2126 59.3426 22.558V26.324H57.2286V22.264C57.2286 21.8066 57.1539 21.4753 57.0046 21.27C56.8646 21.0553 56.6219 20.948 56.2766 20.948C56.0059 20.948 55.7773 21.0133 55.5906 21.144C55.4039 21.2653 55.2593 21.4473 55.1566 21.69C55.0539 21.9233 55.0026 22.2126 55.0026 22.558V26.324H52.8886Z" fill="black"/>
<path d="M48.2005 26.478C47.4631 26.478 46.8191 26.3333 46.2685 26.044C45.7271 25.7546 45.3071 25.3393 45.0085 24.798C44.7098 24.2566 44.5605 23.6173 44.5605 22.88C44.5605 22.1426 44.7098 21.508 45.0085 20.976C45.3071 20.444 45.7271 20.0333 46.2685 19.744C46.8191 19.4546 47.4631 19.31 48.2005 19.31C48.9378 19.31 49.5771 19.4546 50.1185 19.744C50.6691 20.0333 51.0938 20.4486 51.3925 20.99C51.7005 21.522 51.8545 22.152 51.8545 22.88C51.8545 23.6173 51.7005 24.2566 51.3925 24.798C51.0938 25.3393 50.6691 25.7546 50.1185 26.044C49.5771 26.3333 48.9378 26.478 48.2005 26.478ZM48.2005 24.896C48.6578 24.896 49.0265 24.7326 49.3065 24.406C49.5865 24.07 49.7265 23.5613 49.7265 22.88C49.7265 22.1986 49.5865 21.6993 49.3065 21.382C49.0265 21.0553 48.6578 20.892 48.2005 20.892C47.7525 20.892 47.3885 21.0553 47.1085 21.382C46.8285 21.6993 46.6885 22.1986 46.6885 22.88C46.6885 23.5613 46.8285 24.07 47.1085 24.406C47.3885 24.7326 47.7525 24.896 48.2005 24.896Z" fill="black"/>
<path d="M41.082 26.478C40.018 26.478 39.108 26.268 38.352 25.848C37.596 25.428 37.0127 24.84 36.602 24.084C36.2007 23.3186 36 22.418 36 21.382C36 20.346 36.2007 19.45 36.602 18.694C37.0127 17.938 37.596 17.35 38.352 16.93C39.108 16.51 40.018 16.3 41.082 16.3C41.7353 16.3 42.3607 16.4026 42.958 16.608C43.5553 16.8133 44.0453 17.0933 44.428 17.448L43.756 19.17C43.336 18.8433 42.9113 18.6053 42.482 18.456C42.062 18.2973 41.6187 18.218 41.152 18.218C40.2187 18.218 39.5093 18.4933 39.024 19.044C38.5387 19.5853 38.296 20.3646 38.296 21.382C38.296 22.3993 38.5387 23.1833 39.024 23.734C39.5093 24.2846 40.2187 24.56 41.152 24.56C41.6187 24.56 42.062 24.4853 42.482 24.336C42.9113 24.1773 43.336 23.9346 43.756 23.608L44.428 25.33C44.0453 25.6846 43.5553 25.9646 42.958 26.17C42.3607 26.3753 41.7353 26.478 41.082 26.478Z" fill="black"/>
<path d="M113.187 12.478C112.207 12.478 111.479 12.24 111.003 11.764C110.527 11.288 110.289 10.588 110.289 9.66396V7.03196H108.987V5.44996H110.289V3.43396H112.403V5.44996H114.433V7.03196H112.403V9.57996C112.403 9.97196 112.491 10.266 112.669 10.462C112.855 10.658 113.149 10.756 113.551 10.756C113.672 10.756 113.798 10.742 113.929 10.714C114.069 10.686 114.218 10.6486 114.377 10.602L114.685 12.142C114.489 12.2446 114.255 12.324 113.985 12.38C113.714 12.4453 113.448 12.478 113.187 12.478Z" fill="black"/>
<path d="M106.712 12.478C105.965 12.478 105.312 12.3333 104.752 12.044C104.201 11.7453 103.777 11.3253 103.478 10.784C103.179 10.2426 103.03 9.6033 103.03 8.86597C103.03 8.12863 103.179 7.49397 103.478 6.96197C103.777 6.42997 104.201 6.02397 104.752 5.74397C105.312 5.45463 105.965 5.30997 106.712 5.30997C107.16 5.30997 107.603 5.3753 108.042 5.50597C108.49 5.63663 108.854 5.8233 109.134 6.06597L108.546 7.52197C108.322 7.3353 108.061 7.19063 107.762 7.08797C107.463 6.97597 107.183 6.91997 106.922 6.91997C106.371 6.91997 105.942 7.09263 105.634 7.43797C105.335 7.77397 105.186 8.25463 105.186 8.87997C105.186 9.49597 105.335 9.9813 105.634 10.336C105.942 10.6813 106.371 10.854 106.922 10.854C107.183 10.854 107.463 10.8026 107.762 10.7C108.061 10.5973 108.322 10.448 108.546 10.252L109.134 11.708C108.854 11.9413 108.49 12.128 108.042 12.268C107.594 12.408 107.151 12.478 106.712 12.478Z" fill="black"/>
<path d="M98.1772 12.478C97.6732 12.478 97.2205 12.38 96.8192 12.184C96.4178 11.988 96.1052 11.722 95.8812 11.386C95.6572 11.05 95.5452 10.672 95.5452 10.252C95.5452 9.74797 95.6758 9.3513 95.9372 9.06197C96.1985 8.7633 96.6232 8.5533 97.2112 8.43197C97.7992 8.3013 98.5785 8.23597 99.5492 8.23597H100.291V9.32797H99.5632C99.1992 9.32797 98.8912 9.34197 98.6392 9.36997C98.3965 9.39797 98.1958 9.4493 98.0372 9.52397C97.8785 9.5893 97.7618 9.6733 97.6872 9.77597C97.6218 9.87863 97.5892 10.0093 97.5892 10.168C97.5892 10.4293 97.6778 10.644 97.8552 10.812C98.0418 10.98 98.3078 11.064 98.6532 11.064C98.9238 11.064 99.1618 11.0033 99.3672 10.882C99.5818 10.7513 99.7498 10.5786 99.8712 10.364C99.9925 10.14 100.053 9.88797 100.053 9.60797V7.99797C100.053 7.5873 99.9598 7.29797 99.7732 7.12997C99.5865 6.95263 99.2692 6.86397 98.8212 6.86397C98.4478 6.86397 98.0512 6.92463 97.6312 7.04597C97.2205 7.15797 96.8098 7.33063 96.3992 7.56397L95.8252 6.14997C96.0678 5.98197 96.3618 5.8373 96.7072 5.71597C97.0618 5.5853 97.4305 5.4873 97.8132 5.42197C98.1958 5.3473 98.5598 5.30997 98.9052 5.30997C99.6238 5.30997 100.212 5.4173 100.669 5.63197C101.136 5.8373 101.486 6.1593 101.719 6.59797C101.952 7.0273 102.069 7.58263 102.069 8.26397V12.324H100.095V10.938H100.193C100.137 11.2553 100.016 11.5306 99.8292 11.764C99.6518 11.988 99.4232 12.1653 99.1432 12.296C98.8632 12.4173 98.5412 12.478 98.1772 12.478Z" fill="black"/>
<path d="M92.0196 12.478C91.2076 12.478 90.5076 12.3333 89.9196 12.044C89.3409 11.7453 88.8929 11.33 88.5756 10.798C88.2676 10.2566 88.1136 9.62197 88.1136 8.89397C88.1136 8.18463 88.2629 7.56397 88.5616 7.03197C88.8603 6.49063 89.2756 6.07063 89.8076 5.77197C90.3489 5.46397 90.9603 5.30997 91.6416 5.30997C92.3136 5.30997 92.8923 5.45463 93.3776 5.74397C93.8629 6.02397 94.2363 6.4253 94.4976 6.94797C94.7683 7.47063 94.9036 8.0913 94.9036 8.80997V9.34197H89.8496V8.24997H93.3776L93.1536 8.44597C93.1536 7.87663 93.0276 7.4473 92.7756 7.15797C92.5329 6.8593 92.1829 6.70997 91.7256 6.70997C91.3803 6.70997 91.0863 6.7893 90.8436 6.94797C90.6009 7.10663 90.4143 7.3353 90.2836 7.63397C90.1529 7.93263 90.0876 8.29197 90.0876 8.71197V8.82397C90.0876 9.29997 90.1576 9.69197 90.2976 9.99997C90.4469 10.2986 90.6663 10.5226 90.9556 10.672C91.2543 10.8213 91.6229 10.896 92.0616 10.896C92.4349 10.896 92.8129 10.84 93.1956 10.728C93.5783 10.616 93.9236 10.4433 94.2316 10.21L94.7916 11.624C94.4463 11.8853 94.0216 12.0953 93.5176 12.254C93.0229 12.4033 92.5236 12.478 92.0196 12.478Z" fill="black"/>
<path d="M79.3549 12.324V2.45398H83.8629C84.9643 2.45398 85.8136 2.71998 86.4109 3.25198C87.0083 3.78398 87.3069 4.52598 87.3069 5.47798C87.3069 6.09398 87.1716 6.62598 86.9009 7.07398C86.6303 7.52198 86.2383 7.86731 85.7249 8.10998C85.2209 8.35265 84.6003 8.47398 83.8629 8.47398L83.9749 8.23598H84.5489C84.9409 8.23598 85.2816 8.33398 85.5709 8.52998C85.8696 8.71665 86.1263 9.00598 86.3409 9.39798L87.9369 12.324H85.5429L83.8349 9.17398C83.7416 9.00598 83.6343 8.87531 83.5129 8.78198C83.3916 8.67931 83.2516 8.60931 83.0929 8.57198C82.9436 8.52531 82.7756 8.50198 82.5889 8.50198H81.5249V12.324H79.3549ZM81.5249 6.93398H83.4709C84.0496 6.93398 84.4836 6.81731 84.7729 6.58398C85.0716 6.35065 85.2209 6.00065 85.2209 5.53398C85.2209 5.07665 85.0716 4.73131 84.7729 4.49798C84.4836 4.26465 84.0496 4.14798 83.4709 4.14798H81.5249V6.93398Z" fill="black"/>
<path d="M66.4071 12.324V2.45398H68.5771V6.75198H68.6051L72.7071 2.45398H75.3111L70.2711 7.63398L70.2851 6.69598L75.5071 12.324H72.8751L68.6051 7.81598H68.5771V12.324H66.4071Z" fill="black"/>
<path d="M55.8453 12.324V2.45398H59.7093C60.8293 2.45398 61.7813 2.64998 62.5653 3.04198C63.3587 3.42465 63.9607 3.98465 64.3713 4.72198C64.7913 5.44998 65.0013 6.33665 65.0013 7.38198C65.0013 8.42731 64.7913 9.31865 64.3713 10.056C63.9607 10.7933 63.3587 11.358 62.5653 11.75C61.7813 12.1326 60.8293 12.324 59.7093 12.324H55.8453ZM58.0153 10.546H59.5833C60.638 10.546 61.4267 10.2846 61.9493 9.76198C62.472 9.23931 62.7333 8.44598 62.7333 7.38198C62.7333 6.31798 62.4673 5.52931 61.9353 5.01598C61.4127 4.49331 60.6287 4.23198 59.5833 4.23198H58.0153V10.546Z" fill="black"/>
<path d="M50.6846 12.478C50.1712 12.478 49.6719 12.4313 49.1866 12.338C48.7106 12.254 48.2672 12.1327 47.8566 11.974C47.4459 11.806 47.0866 11.61 46.7786 11.386L47.4086 9.67799C47.7072 9.88332 48.0292 10.0607 48.3746 10.21C48.7199 10.3593 49.0886 10.476 49.4806 10.56C49.8726 10.6347 50.2739 10.672 50.6846 10.672C51.3659 10.672 51.8512 10.5693 52.1406 10.364C52.4299 10.1493 52.5746 9.88332 52.5746 9.56599C52.5746 9.38865 52.5279 9.23465 52.4346 9.10399C52.3506 8.97332 52.2059 8.86132 52.0006 8.76799C51.8046 8.66532 51.5339 8.58132 51.1886 8.51599L49.6066 8.17999C48.7106 7.99332 48.0432 7.67599 47.6046 7.22799C47.1752 6.77065 46.9606 6.17332 46.9606 5.43599C46.9606 4.80132 47.1286 4.25065 47.4646 3.78399C47.8099 3.31732 48.2812 2.95332 48.8786 2.69199C49.4852 2.43065 50.1806 2.29999 50.9646 2.29999C51.4219 2.29999 51.8606 2.34665 52.2806 2.43999C52.7006 2.52399 53.0879 2.64999 53.4426 2.81799C53.7972 2.98599 54.1052 3.18665 54.3666 3.41999L53.7366 5.01599C53.3632 4.71732 52.9432 4.49332 52.4766 4.34399C52.0099 4.18532 51.5012 4.10599 50.9506 4.10599C50.5586 4.10599 50.2226 4.15732 49.9426 4.25999C49.6719 4.36265 49.4619 4.50732 49.3126 4.69399C49.1726 4.88065 49.1026 5.09532 49.1026 5.33799C49.1026 5.60865 49.2006 5.82799 49.3966 5.99599C49.5926 6.16399 49.9332 6.29932 50.4186 6.40199L52.0006 6.73799C52.9152 6.93399 53.5966 7.25132 54.0446 7.68999C54.4926 8.11932 54.7166 8.68865 54.7166 9.39799C54.7166 10.014 54.5486 10.5553 54.2126 11.022C53.8859 11.4793 53.4192 11.8387 52.8126 12.1C52.2152 12.352 51.5059 12.478 50.6846 12.478Z" fill="black"/>
<path d="M40.872 12.478C40.144 12.478 39.4767 12.3567 38.87 12.114C38.2727 11.8713 37.7593 11.526 37.33 11.078C36.9007 10.63 36.5693 10.0933 36.336 9.46799C36.112 8.84265 36 8.14732 36 7.38199C36 6.60732 36.112 5.91199 36.336 5.29599C36.5693 4.67065 36.9007 4.13865 37.33 3.69999C37.7593 3.25199 38.2727 2.90665 38.87 2.66399C39.4767 2.42132 40.144 2.29999 40.872 2.29999C41.6093 2.29999 42.2767 2.42132 42.874 2.66399C43.4713 2.90665 43.9847 3.24732 44.414 3.68599C44.8433 4.12465 45.1747 4.65665 45.408 5.28199C45.6413 5.90732 45.758 6.60265 45.758 7.36799C45.758 8.14265 45.6413 8.84265 45.408 9.46799C45.1747 10.0933 44.8433 10.63 44.414 11.078C43.9847 11.526 43.4713 11.8713 42.874 12.114C42.2767 12.3567 41.6093 12.478 40.872 12.478ZM40.872 10.63C41.432 10.63 41.9033 10.504 42.286 10.252C42.6687 9.99065 42.9627 9.61732 43.168 9.13199C43.3827 8.63732 43.49 8.05399 43.49 7.38199C43.49 6.70065 43.3873 6.11732 43.182 5.63199C42.9767 5.14665 42.678 4.77799 42.286 4.52599C41.894 4.27399 41.4227 4.14799 40.872 4.14799C40.3307 4.14799 39.864 4.27399 39.472 4.52599C39.08 4.77799 38.7813 5.14665 38.576 5.63199C38.3707 6.11732 38.268 6.70065 38.268 7.38199C38.268 8.05399 38.3707 8.63732 38.576 9.13199C38.7813 9.61732 39.08 9.99065 39.472 10.252C39.864 10.504 40.3307 10.63 40.872 10.63Z" fill="black"/>
</svg>
