<svg width="128" height="128" viewBox="0 0 128 128" fill="none" xmlns="http://www.w3.org/2000/svg">
<rect width="128" height="128" rx="16" fill="#FBB360"/>
<path fill-rule="evenodd" clip-rule="evenodd" d="M28 82V94H40V82H28ZM22 70H46C49.3 70 52 72.7 52 76V100C52 103.3 49.3 106 46 106H22C18.7 106 16 103.3 16 100V76C16 72.7 18.7 70 22 70ZM76 34H106C109.3 34 112 36.7 112 40C112 43.3 109.3 46 106 46H76C72.7 46 70 43.3 70 40C70 36.7 72.7 34 76 34ZM52 22C55.3 22 58 24.7 58 28C58 29.68 57.34 31.18 56.26 32.26L38.26 56.26C37.18 57.34 35.68 58 34 58C32.32 58 30.82 57.34 29.74 56.26L17.74 44.26C16.66 43.18 16 41.68 16 40C16 36.7 18.7 34 22 34C23.68 34 25.18 34.66 26.26 35.74L34 43.54L47.74 23.74C48.82 22.66 50.32 22 52 22ZM76 82H106C109.3 82 112 84.7 112 88C112 91.3 109.3 94 106 94H76C72.7 94 70 91.3 70 88C70 84.7 72.7 82 76 82Z" fill="#77450D"/>
</svg>
