<svg width="16" height="16" viewBox="0 0 16 16" fill="none" xmlns="http://www.w3.org/2000/svg">
<path fill-rule="evenodd" clip-rule="evenodd" d="M4.10768 6.06401C4.10768 8.3771 5.96702 10.2526 8.26059 10.2526C10.5543 10.2526 12.4138 8.3771 12.4138 6.06401C12.4138 3.7508 10.5543 1.87553 8.26059 1.87553C5.96702 1.87553 4.10768 3.7508 4.10768 6.06401ZM8.26093 13.923L13.6299 11.5848L14.5217 13.3091L8.26093 16L2 13.3091L2.89201 11.5848L8.26093 13.923ZM8.26101 0C4.94367 0 2.25442 2.71228 2.25442 6.05803C2.25442 9.40378 4.94367 12.1159 8.26101 12.1159C11.5782 12.1159 14.2676 9.40378 14.2676 6.05803C14.2676 2.71228 11.5782 0 8.26101 0Z" fill="#111418"/>
</svg>
