<svg width="16" height="16" viewBox="0 0 16 16" fill="none" xmlns="http://www.w3.org/2000/svg">
<path fill-rule="evenodd" clip-rule="evenodd" d="M14.5 4.00336H1.5C1.22 4.00336 1 4.22322 1 4.50305C1 4.78287 1.22 5.00274 1.5 5.00274H2V14.9965C2 15.5461 2.45 15.9959 3 15.9959H13C13.55 15.9959 14 15.5461 14 14.9965V5.00274H14.5C14.78 5.00274 15 4.78287 15 4.50305C15 4.22322 14.78 4.00336 14.5 4.00336ZM6 12.9977C6 13.5474 5.55 13.9971 5 13.9971C4.45 13.9971 4 13.5474 4 12.9977V7.00149C4 6.45183 4.45 6.00211 5 6.00211C5.55 6.00211 6 6.45183 6 7.00149V12.9977ZM9 12.9977C9 13.5474 8.55 13.9971 8 13.9971C7.45 13.9971 7 13.5474 7 12.9977V7.00149C7 6.45183 7.45 6.00211 8 6.00211C8.55 6.00211 9 6.45183 9 7.00149V12.9977ZM12 12.9977C12 13.5474 11.55 13.9971 11 13.9971C10.45 13.9971 10 13.5474 10 12.9977V7.00149C10 6.45183 10.45 6.00211 11 6.00211C11.55 6.00211 12 6.45183 12 7.00149V12.9977ZM14 1.00523H10C10 0.455578 9.55 0.00585938 9 0.00585938H7C6.45 0.00585938 6 0.455578 6 1.00523H2C1.45 1.00523 1 1.45495 1 2.00461V3.00399H15V2.00461C15 1.45495 14.55 1.00523 14 1.00523Z" fill="#5F6B7C"/>
</svg>
